<svg xmlns="http://www.w3.org/2000/svg" version="1.1" width="400" height="400" id="svg1" sodipodi:docname="Greek_uc_theta.svg" inkscape:version="1.4.3 (0d15f75042, 2025-12-25)" xmlns:inkscape="http://www.inkscape.org/namespaces/inkscape" xmlns:sodipodi="http://sodipodi.sourceforge.net/DTD/sodipodi-0.dtd" xmlns:svg="http://www.w3.org/2000/svg"><defs id="defs1"></defs><sodipodi:namedview id="namedview1" pagecolor="#ffffff" bordercolor="#000000" borderopacity="0.25" inkscape:showpageshadow="2" inkscape:pageopacity="0.0" inkscape:pagecheckerboard="0" inkscape:deskcolor="#d1d1d1" inkscape:zoom="1.735194" inkscape:cx="162.806" inkscape:cy="264.52373" inkscape:window-width="1420" inkscape:window-height="904" inkscape:window-x="0" inkscape:window-y="0" inkscape:window-maximized="1" inkscape:current-layer="svg1"></sodipodi:namedview><path fill="#f5a97f" d="m 202.76303,49.326803 q 52.91633,0 95.63155,41.015426 42.71523,40.803241 42.71523,108.170161 0,66.94254 -42.07752,109.65777 -42.07751,42.50304 -99.67001,42.50304 -63.96732,0 -102.219706,-44.84055 -38.252385,-44.84055 -38.252385,-106.89474 0,-67.15473 42.927411,-108.382345 Q 144.95835,49.32795 202.76303,49.32795 Z m -4.03823,15.513833 q -41.22761,0 -66.30483,34.215074 -24.86388,34.00289 -24.86388,99.0323 0,60.77991 23.37627,99.24449 23.37627,38.25239 68.00463,38.25239 43.35294,0 68.43016,-33.57737 25.07721,-33.78955 25.07721,-97.96906 0,-65.02941 -23.5896,-102.00753 Q 245.47849,64.840636 198.7248,64.840636 Z m -49.9411,83.730654 h 8.07566 q 0,18.27687 7.43806,26.13931 7.43795,7.86312 27.41473,7.86312 h 17.21363 q 18.91344,0 26.56369,-7.65048 7.6507,-7.86312 7.6507,-26.35149 h 8.07555 v 102.64523 h -8.07555 q 0,-18.06353 -7.43817,-25.92711 -7.4376,-7.8629 -27.2014,-7.8629 h -17.63915 q -18.91344,0 -26.56483,7.8629 -7.43806,7.86312 -7.43806,25.92711 h -8.07555 z" id="path1" style="stroke-width:1.14696"></path></svg>